<svg version="1.1" id="Layer_1" xmlns="http://www.w3.org/2000/svg" xmlns:xlink="http://www.w3.org/1999/xlink" x="0px" y="0px"
	 width="100%" viewBox="0 0 1024 1024" enable-background="new 0 0 1024 1024" xml:space="preserve">
<path fill="#000000" opacity="1.000000" stroke="none" 
	d="
M409.504059,188.450195 
	C436.545105,172.598984 463.214600,156.836044 490.028717,141.323059 
	C505.936371,132.119873 521.524658,132.410645 537.647644,142.067032 
	C576.509338,165.342133 615.786133,187.923691 654.860474,210.844604 
	C694.939941,234.355133 734.948914,257.985748 775.047119,281.464111 
	C792.434692,291.644897 809.831848,301.823944 827.477600,311.544556 
	C842.388000,319.758331 849.409180,331.917694 849.389465,348.917786 
	C849.262268,458.564362 849.262512,568.211182 849.393799,677.857788 
	C849.412842,693.745239 842.793213,705.156006 829.133057,713.037415 
	C805.908325,726.437317 782.820740,740.075317 759.696350,753.648804 
	C708.281433,783.828247 656.882446,814.034607 605.471130,844.220154 
	C581.488037,858.301575 557.507629,872.387756 533.494385,886.417725 
	C519.776733,894.432373 506.116394,894.271423 492.382812,886.190186 
	C423.623871,845.730225 354.838745,805.314758 286.032898,764.934570 
	C256.586395,747.653320 227.101700,730.436523 197.565582,713.308960 
	C184.279175,705.604370 177.598007,694.330933 177.605621,678.924072 
	C177.660278,568.278564 177.595078,457.632904 177.750015,346.987549 
	C177.770935,332.048798 184.633194,320.472687 197.626907,312.837219 
	C224.479050,297.058228 251.385345,281.371399 278.245636,265.606232 
	C306.684998,248.914276 335.094360,232.171188 363.521606,215.458603 
	C378.740326,206.511398 393.969086,197.581360 409.504059,188.450195 
M814.930908,557.500000 
	C814.942627,490.509735 814.891418,423.519348 815.045471,356.529419 
	C815.064758,348.140533 811.917969,342.304108 804.698303,338.091949 
	C758.087219,310.898010 711.518250,283.631409 664.990540,256.295013 
	C617.886292,228.619873 570.838257,200.849121 523.785156,173.087051 
	C516.645569,168.874557 509.697327,168.970779 502.570068,173.165894 
	C458.220978,199.269989 413.834839,225.311172 369.468933,251.386703 
	C319.796936,280.580841 270.154602,309.825592 220.442154,338.950714 
	C213.369354,343.094513 210.308502,349.022614 210.311584,357.048248 
	C210.351669,461.201050 210.378815,565.353943 210.262115,669.506592 
	C210.253098,677.552979 213.404312,683.219727 220.153976,687.201965 
	C231.916061,694.141296 243.632309,701.158875 255.423264,708.048706 
	C293.240906,730.146606 331.113953,752.149780 368.909302,774.285767 
	C412.888367,800.043457 456.831604,825.862549 500.732727,851.752808 
	C509.153839,856.719055 516.998535,856.924011 525.535461,851.643921 
	C541.395752,841.834290 557.589233,832.561340 573.686340,823.137329 
	C617.668640,797.387756 661.692261,771.708923 705.661987,745.938049 
	C739.143066,726.314453 772.544739,706.555237 806.035400,686.948120 
	C812.458923,683.187500 815.090027,677.945374 815.049194,670.482056 
	C814.844849,633.155640 814.942322,595.827515 814.930908,557.500000 
z"/>
<path fill="#000000" opacity="1.000000" stroke="none" 
	d="
M291.651398,486.999878 
	C291.652954,445.500763 291.646454,404.501648 291.662262,363.502533 
	C291.666321,353.022888 294.973480,349.711578 305.339752,349.700348 
	C315.672852,349.689148 326.006195,349.653595 336.339020,349.707397 
	C344.350739,349.749115 348.318512,353.707703 348.333923,361.687866 
	C348.370697,380.687347 348.337830,399.687012 348.351044,418.686584 
	C348.355103,424.503510 349.151672,425.517365 354.879089,425.539185 
	C378.543610,425.629364 402.208679,425.562592 425.873352,425.629242 
	C428.355713,425.636230 430.000977,424.653748 431.171387,422.608093 
	C434.645081,416.536713 438.135101,410.474518 441.574982,404.384033 
	C442.849396,402.127594 442.931488,399.588531 442.931946,397.087097 
	C442.938019,364.922394 442.891296,332.757629 442.944183,300.593048 
	C442.950653,296.661499 442.026520,294.386444 437.421448,294.269409 
	C428.287842,294.037292 422.896423,288.654327 421.796814,279.363251 
	C420.965149,272.336243 426.799500,263.832245 433.932526,261.689270 
	C436.175293,261.015442 438.448578,260.653839 440.815186,260.655334 
	C489.480713,260.686066 538.146240,260.665802 586.811768,260.708191 
	C594.823242,260.715179 602.491699,267.047943 604.136475,274.738617 
	C605.660217,281.863464 601.016479,290.189331 593.839417,293.432770 
	C592.251160,294.150543 590.660034,294.467407 588.997986,294.327454 
	C584.631653,293.959778 583.250305,295.907135 583.276001,300.214417 
	C583.427979,325.712952 583.349915,351.212860 583.349243,376.712311 
	C583.349182,379.212250 583.649780,381.755188 583.299377,384.205017 
	C581.315430,398.076599 585.919373,409.980957 593.672913,421.136505 
	C595.483337,423.741302 597.315430,425.067230 600.515991,425.126343 
	C623.493103,425.550903 646.467163,426.026825 669.442810,425.041534 
	C676.112732,424.755524 676.669250,424.250641 676.675049,417.319977 
	C676.690125,399.153717 676.660217,380.987396 676.693726,362.821198 
	C676.710205,353.864532 680.874939,349.738190 689.870239,349.707672 
	C700.203247,349.672638 710.536438,349.697449 720.869507,349.687469 
	C731.188843,349.677460 735.305725,353.771454 735.311829,364.277985 
	C735.337524,408.610352 735.326599,452.942719 735.328857,497.275085 
	C735.329224,504.774933 735.391724,512.275452 735.310852,519.774414 
	C735.221497,528.059875 730.906921,532.296509 722.550293,532.333313 
	C712.050781,532.379517 701.550781,532.351074 691.051086,532.326599 
	C680.942017,532.303101 676.695557,528.128784 676.682190,518.146790 
	C676.658936,500.813873 676.695801,483.480865 676.672607,466.147949 
	C676.664185,459.856659 676.123230,459.322937 669.793335,459.313385 
	C654.460327,459.290253 639.127258,459.276733 623.794434,459.328003 
	C617.375854,459.349457 616.529236,460.895874 619.588928,466.337952 
	C653.140747,526.013916 686.680542,585.696655 720.214294,645.382751 
	C725.756165,655.246643 729.803955,665.674316 729.225586,677.143982 
	C728.418274,693.153320 722.643005,707.041931 709.246338,716.699341 
	C693.681519,727.919678 676.925232,737.222412 659.884583,745.975586 
	C653.257019,749.379944 645.897522,750.275208 638.524475,750.279480 
	C553.526367,750.329163 468.528229,750.361511 383.530212,750.268311 
	C374.740295,750.258667 366.474121,747.609009 358.904968,743.052368 
	C346.203247,735.405945 333.409180,727.904236 320.867767,720.002319 
	C304.685852,709.806519 295.180695,687.246582 298.175049,668.335449 
	C299.475800,660.120178 302.166260,652.581482 306.185669,645.405701 
	C325.884949,610.236816 345.553284,575.050598 365.274384,539.893982 
	C378.964203,515.489258 392.734741,491.129700 406.425140,466.725220 
	C407.544403,464.729980 409.033752,462.819092 408.976288,460.261139 
	C407.214050,458.921814 405.143036,459.348236 403.211121,459.342285 
	C387.211639,459.293091 371.211914,459.287323 355.212372,459.321594 
	C348.767059,459.335419 348.353729,459.789124 348.350708,466.099213 
	C348.342072,484.098816 348.369019,502.098450 348.337097,520.098022 
	C348.323730,527.642761 343.849396,532.246704 336.314240,532.309204 
	C325.148621,532.401794 313.980774,532.410889 302.815582,532.293152 
	C295.859253,532.219849 291.709656,527.942200 291.671692,520.992249 
	C291.610718,509.828430 291.652985,498.664032 291.651398,486.999878 
M677.275635,630.186035 
	C673.695679,623.984314 670.074524,617.805969 666.542664,611.576965 
	C647.241638,577.537720 627.944275,543.496399 608.681335,509.435577 
	C591.627441,479.280884 574.605408,449.108154 557.603271,418.924255 
	C553.534241,411.700592 551.467590,404.091980 551.545288,395.595459 
	C551.828613,364.602386 551.658691,333.605133 551.647827,302.609436 
	C551.645203,295.258453 550.735657,294.364807 543.214539,294.360199 
	C523.217407,294.347961 503.220245,294.354523 483.223114,294.362762 
	C475.989990,294.365723 475.297302,295.033936 475.287018,302.437225 
	C475.244446,333.098877 475.208527,363.760590 475.226654,394.422272 
	C475.231262,402.204529 474.024109,409.624237 470.122406,416.517578 
	C442.563110,465.208160 415.066833,513.934448 387.513519,562.628418 
	C373.739349,586.971008 359.699554,611.165527 346.159760,635.637268 
	C340.445679,645.964783 333.439880,655.641907 329.283081,666.772278 
	C325.250824,677.569092 328.705994,689.370728 337.726532,695.065674 
	C348.563171,701.907104 359.589813,708.480347 370.805939,714.677979 
	C380.835052,720.219849 389.470001,717.524963 395.344482,707.590820 
	C415.268616,673.897766 435.105408,640.153015 455.050385,606.472351 
	C458.881073,600.003540 460.825653,593.280579 460.746765,585.640198 
	C460.490356,560.812927 460.584045,535.981140 460.698395,511.151794 
	C460.727997,504.723663 460.227844,498.558807 456.841888,492.873962 
	C454.764099,489.385468 455.890381,487.631012 460.022980,487.662445 
	C468.521271,487.727020 477.020416,487.667908 485.519226,487.672333 
	C494.318512,487.676941 494.332825,487.683502 494.335419,496.578400 
	C494.345184,529.907104 494.648987,563.239807 494.204956,596.562561 
	C494.016052,610.738831 507.504578,626.763062 523.248047,625.884827 
	C538.697937,625.023071 554.242249,626.010010 569.727661,625.569580 
	C578.521912,625.319336 584.102661,629.006287 588.316101,636.365845 
	C601.639282,659.637268 615.174927,682.787354 628.669861,705.960144 
	C635.808777,718.218811 644.822449,721.036255 657.126892,714.240967 
	C667.763000,708.367126 678.056458,701.869568 688.457520,695.575256 
	C691.659912,693.637329 693.899231,690.770142 695.722900,687.496826 
	C700.598755,678.744934 699.489197,670.090332 695.020447,661.743774 
	C689.441101,651.322693 683.455688,641.119080 677.275635,630.186035 
M499.536163,661.956909 
	C499.612946,661.465454 499.671387,660.970276 499.769226,660.483032 
	C501.214600,653.284973 496.872803,646.066162 489.771545,643.869019 
	C482.456421,641.605591 474.574707,645.385010 471.367340,652.693970 
	C468.450592,659.340698 470.792175,666.444580 477.176117,670.316467 
	C485.450958,675.335327 494.571167,672.185608 499.536163,661.956909 
M531.615723,696.549744 
	C529.653137,687.440063 525.116394,683.887390 515.950378,684.282288 
	C510.744690,684.506592 506.105408,688.224731 504.320496,693.603088 
	C502.637543,698.674194 504.068329,703.415710 508.190399,706.924744 
	C516.880859,714.322754 530.075012,709.702576 531.615723,696.549744 
z"/>
<path fill="#000000" opacity="1.000000" stroke="none" 
	d="
M753.569336,435.229614 
	C753.898987,422.791992 752.306702,410.826050 753.623718,398.857086 
	C754.290955,392.793091 757.069214,389.544647 763.073792,388.365082 
	C768.878357,387.224854 774.708740,387.603485 780.431885,388.824463 
	C785.445251,389.894073 788.179932,394.602509 788.196106,401.872009 
	C788.242981,422.864990 788.203857,443.858124 788.203247,464.851196 
	C788.203064,470.182709 788.249939,475.514404 788.223267,480.845734 
	C788.179565,489.582611 783.713257,494.177948 775.091858,494.333679 
	C771.427612,494.399902 767.759460,494.410431 764.096008,494.323303 
	C757.649780,494.169983 754.148193,490.565125 753.604919,484.147583 
	C752.237427,467.994263 754.151367,451.848572 753.569336,435.229614 
z"/>
<path fill="#000000" opacity="1.000000" stroke="none" 
	d="
M264.224091,388.082825 
	C271.184601,389.794434 273.108093,394.696289 273.201965,400.630981 
	C273.354736,410.288422 273.299164,419.949402 273.302521,429.608887 
	C273.308472,446.763367 273.313995,463.917877 273.277313,481.072296 
	C273.258057,490.090424 269.133759,494.252838 260.243988,494.337524 
	C257.246368,494.366089 254.248199,494.361145 251.250427,494.345703 
	C242.715851,494.301727 238.701065,490.408600 238.682175,481.867554 
	C238.631363,458.884003 238.668076,435.900208 238.670898,412.916534 
	C238.671417,408.752838 238.648972,404.588867 238.684525,400.425476 
	C238.753433,392.359253 242.309540,388.354858 250.337860,387.853943 
	C254.808456,387.575012 259.317566,387.913605 264.224091,388.082825 
z"/>
<path fill="#000000" opacity="1.000000" stroke="none" 
	d="
M536.797607,487.672546 
	C545.343140,487.901245 548.262085,490.819977 548.277283,499.039368 
	C548.319397,521.853149 548.399048,544.668274 548.179565,567.480103 
	C548.133118,572.302185 549.644897,573.976685 554.457153,573.772461 
	C561.937317,573.454956 569.441162,573.645935 576.934387,573.702454 
	C584.240540,573.757507 587.158264,576.664612 587.323425,584.036621 
	C587.409180,587.864563 587.437195,591.699890 587.302490,595.525269 
	C587.082703,601.765442 583.275818,606.125671 577.059448,606.209106 
	C559.078186,606.450439 541.090820,606.414795 523.107971,606.253479 
	C518.014282,606.207764 514.705383,602.162048 514.654968,596.417908 
	C514.548401,584.263123 514.712646,572.105957 514.609070,559.951111 
	C514.420349,537.811279 515.240784,515.663940 514.154236,493.531830 
	C513.953613,489.444519 515.287781,487.346313 519.842896,487.600555 
	C525.321228,487.906342 530.829651,487.672485 536.797607,487.672546 
z"/>
</svg>